<mxfile host="app.diagrams.net" agent="Mozilla/5.0 (Windows NT 10.0; Win64; x64) AppleWebKit/537.36 (KHTML, like Gecko) Chrome/121.0.0.0 Safari/537.36" version="24.7.8">
  <diagram name="第 1 页" id="qHCgXSYTzzumiglc0Adv">
    <mxGraphModel dx="699" dy="692" grid="0" gridSize="10" guides="1" tooltips="1" connect="1" arrows="1" fold="1" page="0" pageScale="1" pageWidth="827" pageHeight="1169" math="0" shadow="0">
      <root>
        <mxCell id="0" />
        <mxCell id="1" parent="0" />
        <mxCell id="vtAY9cTU2vYuFBfP6n2g-6" value="" style="rounded=1;whiteSpace=wrap;html=1;" vertex="1" parent="1">
          <mxGeometry x="220" y="193" width="140" height="403" as="geometry" />
        </mxCell>
        <mxCell id="DD-taFXnz9ZpeqrUZeBg-1" value="src&lt;div&gt;(10, 32, 512)&lt;/div&gt;" style="rounded=1;whiteSpace=wrap;html=1;" parent="1" vertex="1">
          <mxGeometry x="-41" y="37" width="120" height="60" as="geometry" />
        </mxCell>
        <mxCell id="DD-taFXnz9ZpeqrUZeBg-2" value="tgt&lt;div&gt;(20, 32, 512)&lt;/div&gt;" style="rounded=1;whiteSpace=wrap;html=1;" parent="1" vertex="1">
          <mxGeometry x="164" y="-124" width="120" height="60" as="geometry" />
        </mxCell>
        <mxCell id="vtAY9cTU2vYuFBfP6n2g-1" value="self_attention&lt;div&gt;dropout+norm&lt;/div&gt;" style="rounded=1;whiteSpace=wrap;html=1;" vertex="1" parent="1">
          <mxGeometry x="229" y="227" width="120" height="60" as="geometry" />
        </mxCell>
        <mxCell id="vtAY9cTU2vYuFBfP6n2g-2" value="linear" style="rounded=1;whiteSpace=wrap;html=1;" vertex="1" parent="1">
          <mxGeometry x="229" y="302" width="120" height="60" as="geometry" />
        </mxCell>
        <mxCell id="vtAY9cTU2vYuFBfP6n2g-3" value="activation" style="rounded=1;whiteSpace=wrap;html=1;" vertex="1" parent="1">
          <mxGeometry x="229" y="378" width="120" height="60" as="geometry" />
        </mxCell>
        <mxCell id="vtAY9cTU2vYuFBfP6n2g-4" value="dropout+linear" style="rounded=1;whiteSpace=wrap;html=1;" vertex="1" parent="1">
          <mxGeometry x="231" y="452" width="120" height="60" as="geometry" />
        </mxCell>
        <mxCell id="vtAY9cTU2vYuFBfP6n2g-5" value="dropout+norm" style="rounded=1;whiteSpace=wrap;html=1;" vertex="1" parent="1">
          <mxGeometry x="231" y="526" width="120" height="60" as="geometry" />
        </mxCell>
        <mxCell id="vtAY9cTU2vYuFBfP6n2g-7" value="&lt;font style=&quot;font-size: 12px;&quot;&gt;encoderlayer&lt;/font&gt;" style="text;html=1;align=center;verticalAlign=middle;whiteSpace=wrap;rounded=0;fontSize=16;" vertex="1" parent="1">
          <mxGeometry x="258" y="197" width="60" height="30" as="geometry" />
        </mxCell>
        <mxCell id="vtAY9cTU2vYuFBfP6n2g-8" value="" style="rounded=1;whiteSpace=wrap;html=1;" vertex="1" parent="1">
          <mxGeometry x="411" y="193" width="140" height="403" as="geometry" />
        </mxCell>
        <mxCell id="vtAY9cTU2vYuFBfP6n2g-9" value="multihead_attention&lt;div&gt;dropout+norm&lt;/div&gt;" style="rounded=1;whiteSpace=wrap;html=1;" vertex="1" parent="1">
          <mxGeometry x="420" y="227" width="120" height="60" as="geometry" />
        </mxCell>
        <mxCell id="vtAY9cTU2vYuFBfP6n2g-10" value="linear" style="rounded=1;whiteSpace=wrap;html=1;" vertex="1" parent="1">
          <mxGeometry x="420" y="302" width="120" height="60" as="geometry" />
        </mxCell>
        <mxCell id="vtAY9cTU2vYuFBfP6n2g-11" value="activation" style="rounded=1;whiteSpace=wrap;html=1;" vertex="1" parent="1">
          <mxGeometry x="420" y="378" width="120" height="60" as="geometry" />
        </mxCell>
        <mxCell id="vtAY9cTU2vYuFBfP6n2g-12" value="dropout+linear" style="rounded=1;whiteSpace=wrap;html=1;" vertex="1" parent="1">
          <mxGeometry x="422" y="452" width="120" height="60" as="geometry" />
        </mxCell>
        <mxCell id="vtAY9cTU2vYuFBfP6n2g-13" value="dropout+norm" style="rounded=1;whiteSpace=wrap;html=1;" vertex="1" parent="1">
          <mxGeometry x="422" y="526" width="120" height="60" as="geometry" />
        </mxCell>
        <mxCell id="vtAY9cTU2vYuFBfP6n2g-14" value="&lt;font style=&quot;font-size: 12px;&quot;&gt;decoderlayer&lt;/font&gt;" style="text;html=1;align=center;verticalAlign=middle;whiteSpace=wrap;rounded=0;fontSize=16;" vertex="1" parent="1">
          <mxGeometry x="449" y="197" width="60" height="30" as="geometry" />
        </mxCell>
        <mxCell id="vtAY9cTU2vYuFBfP6n2g-20" value="" style="endArrow=classic;html=1;rounded=0;fontSize=12;startSize=8;endSize=8;curved=1;exitX=1;exitY=0.5;exitDx=0;exitDy=0;entryX=0;entryY=0.5;entryDx=0;entryDy=0;" edge="1" parent="1" source="vtAY9cTU2vYuFBfP6n2g-6" target="vtAY9cTU2vYuFBfP6n2g-8">
          <mxGeometry width="50" height="50" relative="1" as="geometry">
            <mxPoint x="351" y="372" as="sourcePoint" />
            <mxPoint x="401" y="322" as="targetPoint" />
          </mxGeometry>
        </mxCell>
        <mxCell id="vtAY9cTU2vYuFBfP6n2g-21" value="" style="rounded=1;whiteSpace=wrap;html=1;" vertex="1" parent="1">
          <mxGeometry x="-128" y="134" width="281" height="277" as="geometry" />
        </mxCell>
        <mxCell id="vtAY9cTU2vYuFBfP6n2g-27" value="&lt;font style=&quot;font-size: 12px;&quot;&gt;self_attention block&lt;/font&gt;" style="text;html=1;align=center;verticalAlign=middle;whiteSpace=wrap;rounded=0;fontSize=16;" vertex="1" parent="1">
          <mxGeometry x="-55" y="178" width="123.5" height="30" as="geometry" />
        </mxCell>
        <mxCell id="vtAY9cTU2vYuFBfP6n2g-35" value="&lt;font style=&quot;font-size: 12px;&quot;&gt;feed forward block&lt;/font&gt;" style="text;html=1;align=center;verticalAlign=middle;whiteSpace=wrap;rounded=0;fontSize=16;" vertex="1" parent="1">
          <mxGeometry x="-54.25" y="299" width="123.5" height="30" as="geometry" />
        </mxCell>
        <mxCell id="vtAY9cTU2vYuFBfP6n2g-36" value="encoder layer" style="text;html=1;align=center;verticalAlign=middle;whiteSpace=wrap;rounded=0;fontSize=16;" vertex="1" parent="1">
          <mxGeometry x="-52.25" y="144" width="120.25" height="30" as="geometry" />
        </mxCell>
        <mxCell id="vtAY9cTU2vYuFBfP6n2g-44" value="" style="rounded=0;whiteSpace=wrap;html=1;" vertex="1" parent="1">
          <mxGeometry x="21" y="210" width="120" height="60" as="geometry" />
        </mxCell>
        <mxCell id="vtAY9cTU2vYuFBfP6n2g-45" value="" style="verticalLabelPosition=bottom;verticalAlign=top;html=1;shape=offPageConnector;rounded=0;size=0.21094122680101526;direction=north;" vertex="1" parent="1">
          <mxGeometry x="-36.5" y="210" width="108.5" height="60" as="geometry" />
        </mxCell>
        <mxCell id="vtAY9cTU2vYuFBfP6n2g-47" value="" style="verticalLabelPosition=bottom;verticalAlign=top;html=1;shape=offPageConnector;rounded=0;size=0.21788995242813258;direction=north;" vertex="1" parent="1">
          <mxGeometry x="-117" y="210" width="103" height="60" as="geometry" />
        </mxCell>
        <mxCell id="vtAY9cTU2vYuFBfP6n2g-48" value="&lt;font style=&quot;font-size: 12px;&quot;&gt;self_attention&lt;/font&gt;" style="text;html=1;align=center;verticalAlign=middle;whiteSpace=wrap;rounded=0;fontSize=16;" vertex="1" parent="1">
          <mxGeometry x="-106" y="223" width="60" height="30" as="geometry" />
        </mxCell>
        <mxCell id="vtAY9cTU2vYuFBfP6n2g-49" value="&lt;font style=&quot;font-size: 12px;&quot;&gt;dropout&lt;/font&gt;" style="text;html=1;align=center;verticalAlign=middle;whiteSpace=wrap;rounded=0;fontSize=16;" vertex="1" parent="1">
          <mxGeometry x="-11" y="223" width="60" height="30" as="geometry" />
        </mxCell>
        <mxCell id="vtAY9cTU2vYuFBfP6n2g-50" value="&lt;font style=&quot;font-size: 12px;&quot;&gt;norm&lt;/font&gt;" style="text;html=1;align=center;verticalAlign=middle;whiteSpace=wrap;rounded=0;fontSize=16;" vertex="1" parent="1">
          <mxGeometry x="72" y="223" width="60" height="30" as="geometry" />
        </mxCell>
        <mxCell id="vtAY9cTU2vYuFBfP6n2g-51" value="" style="rounded=0;whiteSpace=wrap;html=1;" vertex="1" parent="1">
          <mxGeometry x="21.5" y="329" width="120" height="60" as="geometry" />
        </mxCell>
        <mxCell id="vtAY9cTU2vYuFBfP6n2g-52" value="" style="verticalLabelPosition=bottom;verticalAlign=top;html=1;shape=offPageConnector;rounded=0;size=0.21094122680101526;direction=north;" vertex="1" parent="1">
          <mxGeometry x="-15" y="329" width="108.5" height="60" as="geometry" />
        </mxCell>
        <mxCell id="vtAY9cTU2vYuFBfP6n2g-53" value="" style="verticalLabelPosition=bottom;verticalAlign=top;html=1;shape=offPageConnector;rounded=0;size=0.21788995242813258;direction=north;" vertex="1" parent="1">
          <mxGeometry x="-60" y="329" width="88" height="60" as="geometry" />
        </mxCell>
        <mxCell id="vtAY9cTU2vYuFBfP6n2g-54" value="&lt;font style=&quot;font-size: 12px;&quot;&gt;activate&lt;/font&gt;" style="text;html=1;align=center;verticalAlign=middle;whiteSpace=wrap;rounded=0;fontSize=16;" vertex="1" parent="1">
          <mxGeometry x="-41" y="341.5" width="60" height="30" as="geometry" />
        </mxCell>
        <mxCell id="vtAY9cTU2vYuFBfP6n2g-55" value="&lt;font style=&quot;font-size: 12px;&quot;&gt;dropout&lt;/font&gt;" style="text;html=1;align=center;verticalAlign=middle;whiteSpace=wrap;rounded=0;fontSize=16;" vertex="1" parent="1">
          <mxGeometry x="24.5" y="342" width="60" height="30" as="geometry" />
        </mxCell>
        <mxCell id="vtAY9cTU2vYuFBfP6n2g-56" value="&lt;font style=&quot;font-size: 12px;&quot;&gt;linear&lt;/font&gt;" style="text;html=1;align=center;verticalAlign=middle;whiteSpace=wrap;rounded=0;fontSize=16;" vertex="1" parent="1">
          <mxGeometry x="89" y="343" width="51.5" height="27" as="geometry" />
        </mxCell>
        <mxCell id="vtAY9cTU2vYuFBfP6n2g-57" value="" style="verticalLabelPosition=bottom;verticalAlign=top;html=1;shape=offPageConnector;rounded=0;size=0.2640463098303064;direction=north;" vertex="1" parent="1">
          <mxGeometry x="-117" y="329" width="77" height="60" as="geometry" />
        </mxCell>
        <mxCell id="vtAY9cTU2vYuFBfP6n2g-58" value="&lt;font style=&quot;font-size: 12px;&quot;&gt;linear&lt;/font&gt;" style="text;html=1;align=center;verticalAlign=middle;whiteSpace=wrap;rounded=0;fontSize=16;" vertex="1" parent="1">
          <mxGeometry x="-114" y="342" width="60" height="30" as="geometry" />
        </mxCell>
        <mxCell id="vtAY9cTU2vYuFBfP6n2g-61" value="" style="endArrow=block;html=1;rounded=0;fontSize=12;startSize=8;endSize=8;curved=1;endFill=1;" edge="1" parent="1" target="vtAY9cTU2vYuFBfP6n2g-35">
          <mxGeometry width="50" height="50" relative="1" as="geometry">
            <mxPoint x="7" y="284" as="sourcePoint" />
            <mxPoint x="57" y="234" as="targetPoint" />
            <Array as="points">
              <mxPoint x="7" y="291" />
            </Array>
          </mxGeometry>
        </mxCell>
      </root>
    </mxGraphModel>
  </diagram>
</mxfile>
